<svg xmlns="http://www.w3.org/2000/svg" viewBox="0 0 167.4 82.68"><defs><style>.cls-1{fill:#fff;}</style></defs><title>logo-t</title><g id="Capa_2" data-name="Capa 2"><g id="Capa_1-2" data-name="Capa 1"><path class="cls-1" d="M2.92,81.61,0,1H14.85L15.9,62.09,41.09,1H55.54L20.75,81.61Z"/><path class="cls-1" d="M41.29,81.61,76,1H95.8l1.71,80.59H82.85V64.36H62.64L55.3,81.61Zm26-28,15.27-.79,0-35.7Z"/><path class="cls-1" d="M127.78,82.68A33.66,33.66,0,0,1,116,80.91a13.53,13.53,0,0,1-6.91-5.3,17.13,17.13,0,0,1-2.55-8.29,31,31,0,0,1,.14-5.39,52.32,52.32,0,0,1,1-5.84l6.59-29.79q2.86-13.08,10.33-19.69T146,0a34,34,0,0,1,11.82,1.75,14,14,0,0,1,7,5.2,17.86,17.86,0,0,1,2.55,8.26,35.31,35.31,0,0,1-.09,5.4,46.77,46.77,0,0,1-1,5.69l-6.59,29.79q-2.85,13-10.42,19.81T127.78,82.68ZM130.34,71a10.79,10.79,0,0,0,4.44-.85,7.34,7.34,0,0,0,3-2.53,15,15,0,0,0,1.79-3.43,35.55,35.55,0,0,0,1.23-4.28l8.24-37.47c.25-1.33.43-2.58.55-3.75,0-.58.07-1.15.13-1.7a4.74,4.74,0,0,0-1.4-3.91q-1.56-1.49-4.92-1.48a10.91,10.91,0,0,0-4.4.8,6.85,6.85,0,0,0-3,2.45,15.71,15.71,0,0,0-1.76,3.36,33.13,33.13,0,0,0-1.22,4.23l-8.25,37.47c-.29,1.46-.51,2.82-.64,4.09,0,.52-.09,1-.1,1.46a5,5,0,0,0,1.37,4Q127,71,130.34,71Z"/></g></g></svg>